<svg xmlns="http://www.w3.org/2000/svg" viewBox="0 0 48 48" xmlns:xlink="http://www.w3.org/1999/xlink" xml:space="preserve" width="100%" height="100%"><path xmlns="http://www.w3.org/2000/svg" d="M40.98 15.04a.4.4 0 0 1 0-.16.4.4 0 0 1 0-.14v-.18l-.12-.3a1 1 0 0 0-.18-.22l-.18-.16h-.1L32.52 8.9l-7.44-4.6a1.8 1.8 0 0 0-.58-.3h-.16a1.6 1.6 0 0 0-.54 0h-.2a2.2 2.2 0 0 0-.66.26L8 13.56l-.18.14-.18.16-.2.14-.1.12-.12.3v.3a1.4 1.4 0 0 0 0 .4v17.46a2 2 0 0 0 .94 1.7l15 9.28.3.12h.16a1.7 1.7 0 0 0 1.04 0h.16l.3-.12L40 34.42a2 2 0 0 0 .94-1.7V15.26s.04-.14.04-.22M24 8.34l3.56 2.2-11.18 6.92-3.58-2.2zm-2 30-11-6.72V18.84l11 6.8zm2-16.22-3.82-2.3 11.18-6.94 3.84 2.38zm13 9.44L26 38.4V25.64l11-6.8z" style="fill: rgb(255, 255, 255); --darkreader-inline-fill: var(--darkreader-text-ffffff, #e8e6e3);" data-darkreader-inline-fill=""></path></svg>