<?xml version="1.0" encoding="UTF-8"?><svg id="a" xmlns="http://www.w3.org/2000/svg" viewBox="0 0 320.1997 45.2832">
<title>DHL_black-logo - brandlogos.net</title><path d="M56.3105,0l-10.2304,13.8984h55.7549c2.8183,0,2.7812,1.0713,1.4033,2.9366-1.3985,1.8945-3.7393,5.1894-5.1641,7.1123-.7236.9775-2.0303,2.7568,2.3018,2.7568h22.7998s3.6758-5.001,6.7558-9.1816c4.1914-5.6875.3633-17.5225-14.6191-17.5225h-59.002Z" style="fill:#231f20;"/><path d="M41.9404,45.2803l20.5479-27.9199s22.7793.0009,25.499.0009c2.8184,0,2.7813,1.0694,1.4043,2.9366-1.3994,1.8945-3.7793,5.1533-5.2041,7.0781-.7227.9765-2.0303,2.7578,2.3018,2.7578h34.1601c-2.8408,3.8916-12.0566,15.1465-28.6035,15.1465h-50.1055Z" style="fill:#231f20;"/><path d="M159.6191,30.1309l-11.1425,15.1494h-29.3936s11.1367-15.1465,11.1465-15.1465l29.3896-.0029h0Z" style="fill:#231f20;"/><polygon points="204.647 26.7041 132.7549 26.7041 152.4141 0 181.7993 0 170.5298 15.3125 183.647 15.3125 194.9204 0 224.3013 0 204.647 26.7041 204.647 26.7041" style="fill:#231f20;"/><path d="M202.1255,30.1338l-11.1484,15.1465h-29.3829s11.1368-15.1465,11.1465-15.1465h29.3848Z" style="fill:#231f20;"/><polygon points="0 36.1064 43.3018 36.1064 40.9365 39.3242 0 39.3242 0 36.1064 0 36.1064" style="fill:#231f20;"/><polygon points="0 30.1338 47.7012 30.1338 45.3311 33.3477 0 33.3477 0 30.1338 0 30.1338" style="fill:#231f20;"/><polygon points="0 42.082 38.9043 42.082 36.5508 45.2803 0 45.2803 0 42.082 0 42.082" style="fill:#231f20;"/><polygon points="320.1997 39.3242 277.0649 39.3242 279.4321 36.1064 320.1997 36.1074 320.1997 39.3242 320.1997 39.3242" style="fill:#231f20;"/><polygon points="320.1997 45.2803 272.6802 45.2832 275.0337 42.082 320.1997 42.082 320.1997 45.2803 320.1997 45.2803" style="fill:#231f20;"/><polygon points="283.8267 30.1338 320.1997 30.1338 320.1997 33.3486 281.4614 33.3516 283.8267 30.1338 283.8267 30.1338" style="fill:#231f20;"/><path d="M264.9966,0l-19.6563,26.7041h-31.1367S233.8638,0,233.8755,0h31.1211Z" style="fill:#231f20;"/><path d="M211.6821,30.1338c.002,0-2.1465,2.9355-3.1914,4.3467-3.6914,4.9882-.4258,10.7998,11.6172,10.7998h47.1914l11.1465-15.1465h-66.7637Z" style="fill:#231f20;"/></svg>