<svg xmlns="http://www.w3.org/2000/svg" viewBox="0 0 48 48" xmlns:xlink="http://www.w3.org/1999/xlink" xml:space="preserve" width="100%" height="100%"><path xmlns="http://www.w3.org/2000/svg" d="M4.094 29.336a2 2 0 0 0 .93 1.214l3.82 2.208v4.398a2 2 0 0 0 2 2h4.398l2.208 3.82a2.02 2.02 0 0 0 1.732 1c.348 0 .694-.092 1.002-.27L24 41.5l3.82 2.208a2 2 0 0 0 2.732-.73l2.206-3.82h4.398a2 2 0 0 0 2-2V32.76l3.82-2.208a2 2 0 0 0 .73-2.734L41.5 24l2.208-3.816a2 2 0 0 0-.73-2.732l-3.82-2.208v-4.4a2 2 0 0 0-2-2H32.76l-2.206-3.818a2 2 0 0 0-1.214-.932 2 2 0 0 0-1.518.2L24 6.5l-3.818-2.208a2 2 0 0 0-2.732.73l-2.208 3.82h-4.398a2 2 0 0 0-2 2v4.398l-3.82 2.208a2.006 2.006 0 0 0-.73 2.736L6.502 24l-2.208 3.816a2 2 0 0 0-.2 1.52M24 26c-6.96 0-8-3.758-8-6 0-2.574 2.058-5.166 6-5.83v-2.146h4v2.218c3.468.82 4.8 3.706 4.8 5.758h-2l-2 .036C26.772 19.276 26.37 18 24 18c-2.598 0-4 1.03-4 2 0 .748 0 2 4 2 6.96 0 8 3.758 8 6 0 2.574-2.058 5.166-6 5.83V36h-4v-2.16c-4.678-.734-6-4.006-6-5.84h4c.022.286.318 2 4 2 2.76 0 4-1.17 4-2 0-.65 0-2-4-2" style="fill: rgb(255, 255, 255); --darkreader-inline-fill: var(--darkreader-text-ffffff, #e8e6e3);" data-darkreader-inline-fill=""></path></svg>