<svg xmlns="http://www.w3.org/2000/svg" viewBox="0 0 48 48" xmlns:xlink="http://www.w3.org/1999/xlink" xml:space="preserve" width="100%" height="100%"><path xmlns="http://www.w3.org/2000/svg" d="M24 4c5.434 0 6.112.02 8.244.12s3.58.434 4.856.93c1.32.508 2.432 1.196 3.544 2.306A9.8 9.8 0 0 1 42.95 10.9c.494 1.274.83 2.726.93 4.856.094 2.132.12 2.81.12 8.244s-.02 6.112-.12 8.244-.436 3.58-.93 4.856a9.8 9.8 0 0 1-2.306 3.544A9.8 9.8 0 0 1 37.1 42.95c-1.274.494-2.726.83-4.856.93-2.132.094-2.81.12-8.244.12s-6.112-.02-8.244-.12-3.58-.436-4.856-.93a9.8 9.8 0 0 1-3.544-2.306A9.8 9.8 0 0 1 5.05 37.1c-.496-1.274-.83-2.726-.93-4.856C4.026 30.112 4 29.434 4 24s.02-6.112.12-8.244.434-3.58.93-4.856a9.8 9.8 0 0 1 2.306-3.544A9.8 9.8 0 0 1 10.9 5.05c1.276-.496 2.724-.83 4.856-.93C17.888 4.026 18.566 4 24 4m0 10a10 10 0 1 0 0 20 10 10 0 0 0 0-20m13-.5a2.5 2.5 0 0 0-5 0 2.5 2.5 0 0 0 5 0M24 18a6 6 0 1 1 0 12 6 6 0 0 1 0-12" style="fill: rgb(245, 183, 177);"></path></svg>