<?xml version="1.0" encoding="UTF-8"?><svg id="a" xmlns="http://www.w3.org/2000/svg" viewBox="0 0 199.4 41.9935">
<title>Motul black logo - Brandlogos.net</title><path d="M51.5.9219v40h-13.9l.7-17.4-7.6,17.4h-9.3l-2.6-17.7-4.5,17.7H0L11.7.9219h15.1l2.4,16.2L36,.9219h15.5ZM129.7,13.6219l-6.3-.3-3.2,27.6h-15.2l3.5-27.5-5.8.2L93,.9219h38l-1.3,12.7ZM149,.9219l-2.8,24.8c-.1,1.5.6,3,1.9,3.6,1.4.5,3.1.3,4.2-.7.9-.8,1.3-1.9,1.5-3.1l3.4-24.7h14.5l-3.1,27.4c-.7,3.9-2.5,7.6-6,10.1-5,3.6-11.7,4.2-18.2,3.3-5.1-.9-11-4.3-12.7-9.5-.7-1.9-.6-4.2-.6-6.2l3-25h14.9ZM187.5,28.2219h11.9l-3.5,12.7h-25.4L175.8.9219h15.1l-3.4,27.3Z"/><path d="M78.9,13.3219c-3.2-.4-6.3,1.1-7.9,3.9-1.4,2.4-1.7,5.7-.3,8.2,1,2.1,3.2,3.5,5.4,3.7,3,.3,5.6-1.2,7.1-3.7,1.6-2.3,1.7-6.1.4-8.6-.7-1.8-2.7-3.1-4.7-3.5M88.1,2.4219l1.5,1.2,8.9,11.4c1,1.9,1,4.4.9,6.7-.1,7.7-5.1,14.8-12.1,18-8.5,4-19.9,2.1-26.6-4.5-5.9-5.6-7.1-15.1-4-22.4C60.3,4.7219,68.8-.3781,77.5.0219c3.8.1,7.4.8,10.6,2.4"/></svg>