<svg xmlns="http://www.w3.org/2000/svg" viewBox="0 0 48 48" xmlns:xlink="http://www.w3.org/1999/xlink" xml:space="preserve" width="100%" height="100%"><path xmlns="http://www.w3.org/2000/svg" d="M7.24 34.56a2.002 2.002 0 0 0 3.72-1.48l-2.24-5.64L22 24.5V34a2 2 0 0 0 4 0v-9.5l13.28 2.94-2.24 5.64a2 2 0 0 0 1.12 2.6 2 2 0 0 0 .74.14 2 2 0 0 0 1.86-1.26l3.1-7.82a2 2 0 0 0-.1-1.68 2 2 0 0 0-1.32-1.02L36 22.62V14a2 2 0 0 0-2-2h-4V6a2 2 0 0 0-2-2h-8a2 2 0 0 0-2 2v6h-4a2 2 0 0 0-2 2v8.62L5.56 24a2 2 0 0 0-1.32 1.02 2 2 0 0 0-.1 1.68zM22 8h4v4h-4zm-6 8h16v5.72L24.44 20h-.88L16 21.72zm25.42 22.56a8.8 8.8 0 0 0-2 .9 4.16 4.16 0 0 1-4.2 0 9.24 9.24 0 0 0-9.08 0 4.28 4.28 0 0 1-4.24 0 9.28 9.28 0 0 0-9.08 0 4.16 4.16 0 0 1-4.2 0 8.8 8.8 0 0 0-2-.9A2 2 0 0 0 4 40a2 2 0 0 0 1.34 2.48 4.2 4.2 0 0 1 1.14.5 8 8 0 0 0 4 1.1 8.3 8.3 0 0 0 4.16-1.12 5.3 5.3 0 0 1 5.12 0 8.3 8.3 0 0 0 8.24 0 5.3 5.3 0 0 1 5.12 0 8 8 0 0 0 8.2 0 4.2 4.2 0 0 1 1.14-.5A2 2 0 0 0 44 40a2 2 0 0 0-2.58-1.44" style="fill: rgb(255, 255, 255);"></path></svg>