<svg xmlns="http://www.w3.org/2000/svg" viewBox="0 0 48 48" xmlns:xlink="http://www.w3.org/1999/xlink" xml:space="preserve" width="100%" height="100%"><path xmlns="http://www.w3.org/2000/svg" d="M44 11.592a16.4 16.4 0 0 1-4.714 1.292 8.24 8.24 0 0 0 3.61-4.54 16.4 16.4 0 0 1-5.212 1.992 8.21 8.21 0 0 0-14.194 5.616 8.4 8.4 0 0 0 .21 1.87A23.3 23.3 0 0 1 6.788 9.248a8.214 8.214 0 0 0 2.54 10.956 8.2 8.2 0 0 1-3.72-1.026v.104a8.21 8.21 0 0 0 6.584 8.046 8 8 0 0 1-2.162.286 8 8 0 0 1-1.546-.144 8.22 8.22 0 0 0 7.664 5.7A16.52 16.52 0 0 1 4 36.564a23.2 23.2 0 0 0 12.58 3.688 23.19 23.19 0 0 0 23.344-23.346q0-.534-.026-1.06A16.8 16.8 0 0 0 44 11.592" class="uim-primary" style="fill: rgb(169, 204, 227);"></path></svg>