<?xml version="1.0" encoding="UTF-8"?><svg id="Layer_1" xmlns="http://www.w3.org/2000/svg" viewBox="0 0 154.84 154.84"><path d="M77.41,0C34.73,0,0,34.74,0,77.42s34.73,77.43,77.41,77.43,77.43-34.73,77.43-77.43S120.11,0,77.41,0h0ZM111.96,59.71c.03.76.04,1.54.04,2.32,0,23.54-17.92,50.69-50.7,50.69-10.06,0-19.43-2.94-27.32-8.01,1.4.17,2.81.26,4.25.26,8.36,0,16.03-2.85,22.14-7.63-7.8-.15-14.37-5.3-16.64-12.38,1.08.21,2.19.32,3.35.32,1.61,0,3.2-.21,4.69-.62-8.15-1.63-14.3-8.83-14.3-17.46,0-.08,0-.15.02-.23,2.39,1.34,5.15,2.13,8.07,2.22-4.78-3.18-7.94-8.65-7.94-14.83,0-3.26.88-6.32,2.41-8.95,8.78,10.78,21.93,17.88,36.72,18.62-.3-1.31-.46-2.66-.46-4.07,0-9.83,7.98-17.81,17.82-17.81,5.13,0,9.76,2.16,13,5.62,4.07-.79,7.89-2.27,11.33-4.32-1.34,4.17-4.16,7.66-7.84,9.87,3.61-.42,7.05-1.38,10.23-2.8-2.37,3.56-5.41,6.7-8.88,9.21h0ZM111.96,59.71"/></svg>